# xmcd
#
# Track frame offsets:
#	150
#	19258
#	34582
#	52206
#	71034
#	89295
#	103861
#	124230
#	142298
#	161538
#	177770
#	195510
#
# Disc length: 2815 seconds
#
# Revision: 1
# Processed by: cddbd v1.5.2PL0 Copyright (c) Steve Scherf et al.
# Submitted via: audiograbber 1.83.01
#
DISCID=ae0afd0c
DTITLE=Josephine Biundo - Let There Be Love
DYEAR=2008
DGENRE=Jazz
TTITLE0=Meglio Stasera (It Had Better Be Tonight)
TTITLE1=My Darling Daughter
TTITLE2=Let There Be Love
TTITLE3=To Love Somebody (Cosi Ti Amo)
TTITLE4=Adesso Mi Trovo
TTITLE5=Lover Come Back
TTITLE6=Bei Mir Bist du Schon
TTITLE7=Io Non Ti Penso Piu
TTITLE8=Teach Me Tonight
TTITLE9=Who Will I Love Today?
TTITLE10=Time To Say Goodbye
TTITLE11=Evil Gal Blues
EXTD=
EXTT0=
EXTT1=
EXTT2=
EXTT3=
EXTT4=
EXTT5=
EXTT6=
EXTT7=
EXTT8=
EXTT9=
EXTT10=
EXTT11=
PLAYORDER=
